<svg xmlns="http://www.w3.org/2000/svg" viewBox="0 0 512 512">
  <rect width="512" height="512" rx="96" fill="#3498db"/>
  <path d="M149.333 138.667h106.667v53.333h-106.667v106.667h-53.333v-106.667c0-29.44 23.893-53.333 53.333-53.333zm0 234.666h106.667v-53.333h-106.667v53.333zm-53.333-106.666h53.333v-53.334h-53.333v53.334zm160-234.667h106.667c29.44 0 53.333 23.893 53.333 53.333v106.667h-53.333v-106.667h-106.667v-53.333zm160 341.333h-106.667v-53.333h106.667v-106.667h53.333v106.667c0 29.44-23.893 53.333-53.333 53.333zm-53.333-106.666h-106.667v53.333h106.667v-53.333z" fill="#fff" transform="rotate(45 256 256)"/>
</svg>
